<mxfile host="app.diagrams.net" modified="2023-01-10T11:29:55.990Z" agent="5.0 (Windows)" etag="i5mTIUMhqxBraM_JISiO" version="20.8.3" type="github">
  <diagram id="C5RBs43oDa-KdzZeNtuy" name="Page-1">
    <mxGraphModel dx="1348" dy="821" grid="1" gridSize="10" guides="1" tooltips="1" connect="1" arrows="1" fold="1" page="1" pageScale="1" pageWidth="827" pageHeight="1169" math="0" shadow="0">
      <root>
        <mxCell id="WIyWlLk6GJQsqaUBKTNV-0" />
        <mxCell id="WIyWlLk6GJQsqaUBKTNV-1" parent="WIyWlLk6GJQsqaUBKTNV-0" />
        <mxCell id="N5PGTfab8QkPNErYUo6F-5" style="edgeStyle=orthogonalEdgeStyle;rounded=0;orthogonalLoop=1;jettySize=auto;html=1;entryX=0.5;entryY=0;entryDx=0;entryDy=0;entryPerimeter=0;" edge="1" parent="WIyWlLk6GJQsqaUBKTNV-1" target="N5PGTfab8QkPNErYUo6F-0">
          <mxGeometry relative="1" as="geometry">
            <mxPoint x="220" y="110" as="sourcePoint" />
          </mxGeometry>
        </mxCell>
        <mxCell id="WIyWlLk6GJQsqaUBKTNV-3" value="Начало" style="rounded=1;whiteSpace=wrap;html=1;fontSize=12;glass=0;strokeWidth=1;shadow=0;" parent="WIyWlLk6GJQsqaUBKTNV-1" vertex="1">
          <mxGeometry x="160" y="80" width="120" height="40" as="geometry" />
        </mxCell>
        <mxCell id="N5PGTfab8QkPNErYUo6F-10" style="edgeStyle=orthogonalEdgeStyle;rounded=0;orthogonalLoop=1;jettySize=auto;html=1;entryX=0.5;entryY=0;entryDx=0;entryDy=0;" edge="1" parent="WIyWlLk6GJQsqaUBKTNV-1" source="N5PGTfab8QkPNErYUo6F-0" target="N5PGTfab8QkPNErYUo6F-8">
          <mxGeometry relative="1" as="geometry" />
        </mxCell>
        <mxCell id="N5PGTfab8QkPNErYUo6F-0" value="" style="verticalLabelPosition=bottom;verticalAlign=top;html=1;shape=card;whiteSpace=wrap;size=20;arcSize=12;" vertex="1" parent="WIyWlLk6GJQsqaUBKTNV-1">
          <mxGeometry x="170" y="140" width="100" height="40" as="geometry" />
        </mxCell>
        <mxCell id="N5PGTfab8QkPNErYUo6F-3" value="a, b" style="text;html=1;strokeColor=none;fillColor=none;align=center;verticalAlign=middle;whiteSpace=wrap;rounded=0;" vertex="1" parent="WIyWlLk6GJQsqaUBKTNV-1">
          <mxGeometry x="190" y="145" width="60" height="30" as="geometry" />
        </mxCell>
        <mxCell id="N5PGTfab8QkPNErYUo6F-13" style="edgeStyle=orthogonalEdgeStyle;rounded=0;orthogonalLoop=1;jettySize=auto;html=1;entryX=0.5;entryY=0;entryDx=0;entryDy=0;" edge="1" parent="WIyWlLk6GJQsqaUBKTNV-1" source="N5PGTfab8QkPNErYUo6F-8" target="N5PGTfab8QkPNErYUo6F-12">
          <mxGeometry relative="1" as="geometry" />
        </mxCell>
        <mxCell id="N5PGTfab8QkPNErYUo6F-8" value="a==b" style="rhombus;whiteSpace=wrap;html=1;" vertex="1" parent="WIyWlLk6GJQsqaUBKTNV-1">
          <mxGeometry x="180" y="200" width="80" height="40" as="geometry" />
        </mxCell>
        <mxCell id="N5PGTfab8QkPNErYUo6F-70" style="edgeStyle=orthogonalEdgeStyle;rounded=0;orthogonalLoop=1;jettySize=auto;html=1;exitX=1;exitY=0.5;exitDx=0;exitDy=0;" edge="1" parent="WIyWlLk6GJQsqaUBKTNV-1" source="N5PGTfab8QkPNErYUo6F-11">
          <mxGeometry relative="1" as="geometry">
            <mxPoint x="220" y="700" as="targetPoint" />
            <Array as="points">
              <mxPoint x="530" y="220" />
              <mxPoint x="530" y="700" />
            </Array>
          </mxGeometry>
        </mxCell>
        <mxCell id="N5PGTfab8QkPNErYUo6F-11" value="Parameters are equal." style="shape=parallelogram;perimeter=parallelogramPerimeter;whiteSpace=wrap;html=1;fixedSize=1;" vertex="1" parent="WIyWlLk6GJQsqaUBKTNV-1">
          <mxGeometry x="300" y="207.5" width="160" height="25" as="geometry" />
        </mxCell>
        <mxCell id="N5PGTfab8QkPNErYUo6F-14" style="edgeStyle=orthogonalEdgeStyle;rounded=0;orthogonalLoop=1;jettySize=auto;html=1;entryX=0;entryY=0.5;entryDx=0;entryDy=0;" edge="1" parent="WIyWlLk6GJQsqaUBKTNV-1" target="N5PGTfab8QkPNErYUo6F-11">
          <mxGeometry relative="1" as="geometry">
            <mxPoint x="260" y="220" as="sourcePoint" />
          </mxGeometry>
        </mxCell>
        <mxCell id="N5PGTfab8QkPNErYUo6F-17" style="edgeStyle=orthogonalEdgeStyle;rounded=0;orthogonalLoop=1;jettySize=auto;html=1;entryX=0.5;entryY=0;entryDx=0;entryDy=0;" edge="1" parent="WIyWlLk6GJQsqaUBKTNV-1" source="N5PGTfab8QkPNErYUo6F-12" target="N5PGTfab8QkPNErYUo6F-16">
          <mxGeometry relative="1" as="geometry" />
        </mxCell>
        <mxCell id="N5PGTfab8QkPNErYUo6F-12" value="temp_a = a&lt;br&gt;temp_b = b" style="rounded=0;whiteSpace=wrap;html=1;" vertex="1" parent="WIyWlLk6GJQsqaUBKTNV-1">
          <mxGeometry x="175" y="260" width="90" height="40" as="geometry" />
        </mxCell>
        <mxCell id="N5PGTfab8QkPNErYUo6F-15" value="true" style="text;html=1;strokeColor=none;fillColor=none;align=center;verticalAlign=middle;whiteSpace=wrap;rounded=0;" vertex="1" parent="WIyWlLk6GJQsqaUBKTNV-1">
          <mxGeometry x="260" y="190" width="40" height="30" as="geometry" />
        </mxCell>
        <mxCell id="N5PGTfab8QkPNErYUo6F-23" value="" style="edgeStyle=orthogonalEdgeStyle;rounded=0;orthogonalLoop=1;jettySize=auto;html=1;" edge="1" parent="WIyWlLk6GJQsqaUBKTNV-1" source="N5PGTfab8QkPNErYUo6F-16" target="N5PGTfab8QkPNErYUo6F-22">
          <mxGeometry relative="1" as="geometry" />
        </mxCell>
        <mxCell id="N5PGTfab8QkPNErYUo6F-31" style="edgeStyle=orthogonalEdgeStyle;rounded=0;orthogonalLoop=1;jettySize=auto;html=1;entryX=0;entryY=0.5;entryDx=0;entryDy=0;" edge="1" parent="WIyWlLk6GJQsqaUBKTNV-1" source="N5PGTfab8QkPNErYUo6F-16" target="N5PGTfab8QkPNErYUo6F-29">
          <mxGeometry relative="1" as="geometry" />
        </mxCell>
        <mxCell id="N5PGTfab8QkPNErYUo6F-16" value="" style="verticalLabelPosition=bottom;verticalAlign=top;html=1;shape=hexagon;perimeter=hexagonPerimeter2;arcSize=6;size=0.27;" vertex="1" parent="WIyWlLk6GJQsqaUBKTNV-1">
          <mxGeometry x="170" y="320" width="100" height="40" as="geometry" />
        </mxCell>
        <mxCell id="N5PGTfab8QkPNErYUo6F-19" value="temp_a&amp;gt;=1" style="text;html=1;strokeColor=none;fillColor=none;align=center;verticalAlign=middle;whiteSpace=wrap;rounded=0;" vertex="1" parent="WIyWlLk6GJQsqaUBKTNV-1">
          <mxGeometry x="190" y="330" width="60" height="15" as="geometry" />
        </mxCell>
        <mxCell id="N5PGTfab8QkPNErYUo6F-21" value="&lt;div&gt;false&lt;/div&gt;" style="text;html=1;strokeColor=none;fillColor=none;align=center;verticalAlign=middle;whiteSpace=wrap;rounded=0;" vertex="1" parent="WIyWlLk6GJQsqaUBKTNV-1">
          <mxGeometry x="220" y="230" width="40" height="30" as="geometry" />
        </mxCell>
        <mxCell id="N5PGTfab8QkPNErYUo6F-24" style="edgeStyle=orthogonalEdgeStyle;rounded=0;orthogonalLoop=1;jettySize=auto;html=1;entryX=0;entryY=0.5;entryDx=0;entryDy=0;" edge="1" parent="WIyWlLk6GJQsqaUBKTNV-1" source="N5PGTfab8QkPNErYUo6F-22" target="N5PGTfab8QkPNErYUo6F-16">
          <mxGeometry relative="1" as="geometry">
            <mxPoint x="100" y="360" as="targetPoint" />
            <Array as="points">
              <mxPoint x="120" y="400" />
              <mxPoint x="120" y="340" />
            </Array>
          </mxGeometry>
        </mxCell>
        <mxCell id="N5PGTfab8QkPNErYUo6F-22" value="&lt;div&gt;sum_a+=(temp_a%10)&lt;/div&gt;&lt;div&gt;temp_a/=10&lt;br&gt;&lt;/div&gt;" style="whiteSpace=wrap;html=1;verticalAlign=top;arcSize=6;" vertex="1" parent="WIyWlLk6GJQsqaUBKTNV-1">
          <mxGeometry x="155" y="380" width="130" height="40" as="geometry" />
        </mxCell>
        <mxCell id="N5PGTfab8QkPNErYUo6F-25" value="true" style="text;html=1;strokeColor=none;fillColor=none;align=center;verticalAlign=middle;whiteSpace=wrap;rounded=0;" vertex="1" parent="WIyWlLk6GJQsqaUBKTNV-1">
          <mxGeometry x="220" y="350" width="40" height="30" as="geometry" />
        </mxCell>
        <mxCell id="N5PGTfab8QkPNErYUo6F-43" style="edgeStyle=orthogonalEdgeStyle;rounded=0;orthogonalLoop=1;jettySize=auto;html=1;exitX=1;exitY=0.5;exitDx=0;exitDy=0;" edge="1" parent="WIyWlLk6GJQsqaUBKTNV-1" source="N5PGTfab8QkPNErYUo6F-29">
          <mxGeometry relative="1" as="geometry">
            <mxPoint x="220" y="450" as="targetPoint" />
            <Array as="points">
              <mxPoint x="460" y="340" />
              <mxPoint x="460" y="430" />
              <mxPoint x="220" y="430" />
            </Array>
          </mxGeometry>
        </mxCell>
        <mxCell id="N5PGTfab8QkPNErYUo6F-29" value="" style="verticalLabelPosition=bottom;verticalAlign=top;html=1;shape=hexagon;perimeter=hexagonPerimeter2;arcSize=6;size=0.27;" vertex="1" parent="WIyWlLk6GJQsqaUBKTNV-1">
          <mxGeometry x="335" y="320" width="100" height="40" as="geometry" />
        </mxCell>
        <mxCell id="N5PGTfab8QkPNErYUo6F-30" value="temp_b&amp;gt;=1" style="text;html=1;strokeColor=none;fillColor=none;align=center;verticalAlign=middle;whiteSpace=wrap;rounded=0;" vertex="1" parent="WIyWlLk6GJQsqaUBKTNV-1">
          <mxGeometry x="355" y="330" width="60" height="15" as="geometry" />
        </mxCell>
        <mxCell id="N5PGTfab8QkPNErYUo6F-32" value="&lt;div&gt;false&lt;/div&gt;" style="text;html=1;strokeColor=none;fillColor=none;align=center;verticalAlign=middle;whiteSpace=wrap;rounded=0;" vertex="1" parent="WIyWlLk6GJQsqaUBKTNV-1">
          <mxGeometry x="270" y="310" width="30" height="30" as="geometry" />
        </mxCell>
        <mxCell id="N5PGTfab8QkPNErYUo6F-35" value="&lt;div&gt;sum_b+=(temp_b%10)&lt;/div&gt;&lt;div&gt;temp_b/=10&lt;br&gt;&lt;/div&gt;" style="whiteSpace=wrap;html=1;verticalAlign=top;arcSize=6;" vertex="1" parent="WIyWlLk6GJQsqaUBKTNV-1">
          <mxGeometry x="320" y="380" width="130" height="40" as="geometry" />
        </mxCell>
        <mxCell id="N5PGTfab8QkPNErYUo6F-36" value="" style="edgeStyle=orthogonalEdgeStyle;rounded=0;orthogonalLoop=1;jettySize=auto;html=1;" edge="1" parent="WIyWlLk6GJQsqaUBKTNV-1">
          <mxGeometry relative="1" as="geometry">
            <mxPoint x="384.95" y="360" as="sourcePoint" />
            <mxPoint x="384.95" y="380" as="targetPoint" />
          </mxGeometry>
        </mxCell>
        <mxCell id="N5PGTfab8QkPNErYUo6F-39" style="edgeStyle=orthogonalEdgeStyle;rounded=0;orthogonalLoop=1;jettySize=auto;html=1;" edge="1" parent="WIyWlLk6GJQsqaUBKTNV-1">
          <mxGeometry relative="1" as="geometry">
            <mxPoint x="300" y="340" as="targetPoint" />
            <mxPoint x="320" y="400.0000000000001" as="sourcePoint" />
            <Array as="points">
              <mxPoint x="300" y="400" />
            </Array>
          </mxGeometry>
        </mxCell>
        <mxCell id="N5PGTfab8QkPNErYUo6F-42" value="true" style="text;html=1;strokeColor=none;fillColor=none;align=center;verticalAlign=middle;whiteSpace=wrap;rounded=0;" vertex="1" parent="WIyWlLk6GJQsqaUBKTNV-1">
          <mxGeometry x="390" y="350" width="30" height="30" as="geometry" />
        </mxCell>
        <mxCell id="N5PGTfab8QkPNErYUo6F-47" style="edgeStyle=orthogonalEdgeStyle;rounded=0;orthogonalLoop=1;jettySize=auto;html=1;entryX=0.5;entryY=0;entryDx=0;entryDy=0;" edge="1" parent="WIyWlLk6GJQsqaUBKTNV-1" source="N5PGTfab8QkPNErYUo6F-44" target="N5PGTfab8QkPNErYUo6F-46">
          <mxGeometry relative="1" as="geometry" />
        </mxCell>
        <mxCell id="N5PGTfab8QkPNErYUo6F-44" value="sum_a!=sum_b" style="rhombus;whiteSpace=wrap;html=1;" vertex="1" parent="WIyWlLk6GJQsqaUBKTNV-1">
          <mxGeometry x="162.5" y="450" width="115" height="50" as="geometry" />
        </mxCell>
        <mxCell id="N5PGTfab8QkPNErYUo6F-53" style="edgeStyle=orthogonalEdgeStyle;rounded=0;orthogonalLoop=1;jettySize=auto;html=1;entryX=0.5;entryY=0;entryDx=0;entryDy=0;" edge="1" parent="WIyWlLk6GJQsqaUBKTNV-1" source="N5PGTfab8QkPNErYUo6F-46" target="N5PGTfab8QkPNErYUo6F-50">
          <mxGeometry relative="1" as="geometry" />
        </mxCell>
        <mxCell id="N5PGTfab8QkPNErYUo6F-55" style="edgeStyle=orthogonalEdgeStyle;rounded=0;orthogonalLoop=1;jettySize=auto;html=1;" edge="1" parent="WIyWlLk6GJQsqaUBKTNV-1" source="N5PGTfab8QkPNErYUo6F-46">
          <mxGeometry relative="1" as="geometry">
            <mxPoint x="320" y="545" as="targetPoint" />
          </mxGeometry>
        </mxCell>
        <mxCell id="N5PGTfab8QkPNErYUo6F-46" value="sum_a&amp;lt;sum_b" style="rhombus;whiteSpace=wrap;html=1;" vertex="1" parent="WIyWlLk6GJQsqaUBKTNV-1">
          <mxGeometry x="162.5" y="520" width="115" height="50" as="geometry" />
        </mxCell>
        <mxCell id="N5PGTfab8QkPNErYUo6F-49" value="true" style="text;html=1;strokeColor=none;fillColor=none;align=center;verticalAlign=middle;whiteSpace=wrap;rounded=0;" vertex="1" parent="WIyWlLk6GJQsqaUBKTNV-1">
          <mxGeometry x="220" y="490" width="40" height="30" as="geometry" />
        </mxCell>
        <mxCell id="N5PGTfab8QkPNErYUo6F-63" style="edgeStyle=orthogonalEdgeStyle;rounded=0;orthogonalLoop=1;jettySize=auto;html=1;" edge="1" parent="WIyWlLk6GJQsqaUBKTNV-1" source="N5PGTfab8QkPNErYUo6F-50">
          <mxGeometry relative="1" as="geometry">
            <mxPoint x="220" y="650" as="targetPoint" />
          </mxGeometry>
        </mxCell>
        <mxCell id="N5PGTfab8QkPNErYUo6F-50" value="result = ((float)sum_a)/b" style="whiteSpace=wrap;html=1;verticalAlign=top;arcSize=6;" vertex="1" parent="WIyWlLk6GJQsqaUBKTNV-1">
          <mxGeometry x="152.5" y="590" width="135" height="25" as="geometry" />
        </mxCell>
        <mxCell id="N5PGTfab8QkPNErYUo6F-54" value="true" style="text;html=1;strokeColor=none;fillColor=none;align=center;verticalAlign=middle;whiteSpace=wrap;rounded=0;" vertex="1" parent="WIyWlLk6GJQsqaUBKTNV-1">
          <mxGeometry x="220" y="560" width="40" height="30" as="geometry" />
        </mxCell>
        <mxCell id="N5PGTfab8QkPNErYUo6F-56" value="&lt;div&gt;false&lt;/div&gt;" style="text;html=1;strokeColor=none;fillColor=none;align=center;verticalAlign=middle;whiteSpace=wrap;rounded=0;" vertex="1" parent="WIyWlLk6GJQsqaUBKTNV-1">
          <mxGeometry x="277.5" y="520" width="30" height="30" as="geometry" />
        </mxCell>
        <mxCell id="N5PGTfab8QkPNErYUo6F-64" style="edgeStyle=orthogonalEdgeStyle;rounded=0;orthogonalLoop=1;jettySize=auto;html=1;" edge="1" parent="WIyWlLk6GJQsqaUBKTNV-1" source="N5PGTfab8QkPNErYUo6F-58">
          <mxGeometry relative="1" as="geometry">
            <mxPoint x="220" y="630" as="targetPoint" />
            <Array as="points">
              <mxPoint x="388" y="630" />
            </Array>
          </mxGeometry>
        </mxCell>
        <mxCell id="N5PGTfab8QkPNErYUo6F-58" value="result = ((float)sum_b)/a" style="whiteSpace=wrap;html=1;verticalAlign=top;arcSize=6;" vertex="1" parent="WIyWlLk6GJQsqaUBKTNV-1">
          <mxGeometry x="320" y="532.5" width="135" height="25" as="geometry" />
        </mxCell>
        <mxCell id="N5PGTfab8QkPNErYUo6F-59" style="edgeStyle=orthogonalEdgeStyle;rounded=0;orthogonalLoop=1;jettySize=auto;html=1;" edge="1" parent="WIyWlLk6GJQsqaUBKTNV-1">
          <mxGeometry relative="1" as="geometry">
            <mxPoint x="320" y="475" as="targetPoint" />
            <mxPoint x="277.5" y="475" as="sourcePoint" />
          </mxGeometry>
        </mxCell>
        <mxCell id="N5PGTfab8QkPNErYUo6F-60" value="&lt;div&gt;false&lt;/div&gt;" style="text;html=1;strokeColor=none;fillColor=none;align=center;verticalAlign=middle;whiteSpace=wrap;rounded=0;" vertex="1" parent="WIyWlLk6GJQsqaUBKTNV-1">
          <mxGeometry x="277.5" y="450" width="30" height="30" as="geometry" />
        </mxCell>
        <mxCell id="N5PGTfab8QkPNErYUo6F-73" style="edgeStyle=orthogonalEdgeStyle;rounded=0;orthogonalLoop=1;jettySize=auto;html=1;" edge="1" parent="WIyWlLk6GJQsqaUBKTNV-1" source="N5PGTfab8QkPNErYUo6F-61">
          <mxGeometry relative="1" as="geometry">
            <mxPoint x="530" y="476" as="targetPoint" />
          </mxGeometry>
        </mxCell>
        <mxCell id="N5PGTfab8QkPNErYUo6F-61" value="Sums of parameters are equal." style="shape=parallelogram;perimeter=parallelogramPerimeter;whiteSpace=wrap;html=1;fixedSize=1;" vertex="1" parent="WIyWlLk6GJQsqaUBKTNV-1">
          <mxGeometry x="310" y="462.5" width="200" height="27.5" as="geometry" />
        </mxCell>
        <mxCell id="N5PGTfab8QkPNErYUo6F-62" value="Конец" style="rounded=1;whiteSpace=wrap;html=1;fontSize=12;glass=0;strokeWidth=1;shadow=0;" vertex="1" parent="WIyWlLk6GJQsqaUBKTNV-1">
          <mxGeometry x="160" y="720" width="120" height="40" as="geometry" />
        </mxCell>
        <mxCell id="N5PGTfab8QkPNErYUo6F-72" style="edgeStyle=orthogonalEdgeStyle;rounded=0;orthogonalLoop=1;jettySize=auto;html=1;entryX=0.5;entryY=0;entryDx=0;entryDy=0;" edge="1" parent="WIyWlLk6GJQsqaUBKTNV-1" source="N5PGTfab8QkPNErYUo6F-65" target="N5PGTfab8QkPNErYUo6F-62">
          <mxGeometry relative="1" as="geometry" />
        </mxCell>
        <mxCell id="N5PGTfab8QkPNErYUo6F-65" value="result" style="shape=parallelogram;perimeter=parallelogramPerimeter;whiteSpace=wrap;html=1;fixedSize=1;" vertex="1" parent="WIyWlLk6GJQsqaUBKTNV-1">
          <mxGeometry x="185" y="650" width="70" height="25" as="geometry" />
        </mxCell>
        <mxCell id="N5PGTfab8QkPNErYUo6F-74" value="&lt;div&gt;false&lt;/div&gt;" style="text;html=1;strokeColor=none;fillColor=none;align=center;verticalAlign=middle;whiteSpace=wrap;rounded=0;" vertex="1" parent="WIyWlLk6GJQsqaUBKTNV-1">
          <mxGeometry x="435" y="310" width="25" height="30" as="geometry" />
        </mxCell>
      </root>
    </mxGraphModel>
  </diagram>
</mxfile>
